<?xml version="1.0" encoding="utf-8"?>
<!-- Generator: Adobe Illustrator 24.0.0, SVG Export Plug-In . SVG Version: 6.00 Build 0)  -->
<svg version="1.1" id="Layer_1" xmlns="http://www.w3.org/2000/svg" xmlns:xlink="http://www.w3.org/1999/xlink" x="0px" y="0px"
	 viewBox="0 0 187.8 65" style="enable-background:new 0 0 187.8 65;" xml:space="preserve">
<style type="text/css">
	.st0{fill:#FDFEFF;}
</style>
<g>
	<g>
		<g>
			<path class="st0" d="M125.5,62.3l-0.6,0.1l-2.4,2.4c7.7-1.6,18.9-2.7,31.3-2.7c12.4,0,23.6,1.1,31.3,2.7l2.6-2.6
				c-8-1.7-19.2-2.6-31-2.6C144.9,59.7,133.5,60.7,125.5,62.3"/>
			<path class="st0" d="M124.9,62.6L125,62c1.7-8,2.7-19.4,2.7-31.3c0-11.8-1-23-2.6-31l-2.6,2.6c1.6,7.7,2.7,18.9,2.7,31.3
				c0,12.4-1.1,23.6-2.7,31.3L124.9,62.6z"/>
			<path class="st0" d="M4.8,28c0-0.6-0.6-1.2-1.9-2c-0.4,0.4-0.8,1.1-1.3,1.8c-0.1,0.2-0.1,0.4-0.1,0.5c0,0.5,0.4,0.8,1,0.8
				s1.2-0.2,1.9-0.4C4.6,28.5,4.8,28.2,4.8,28 M5.5,21.1l-0.8,1.3l-1.9-1.2l-0.5,1.1l-2-1.2l0.8-1.4L3,20.9l0.6-1.1L5.5,21.1z
				 M6.1,27c0,0.4-0.3,1.1-0.7,2c-0.4,0.4-0.6,0.8-1,1c-0.6,0.4-1.3,0.7-2.1,0.9c-0.5,0.1-1,0-1.4-0.2C0.3,30.5,0,30.1,0,29.7
				c0-0.8,0.6-2,1.9-3.6l1.6-2c0.2,0.2,0.5,0.5,1,0.9c0.5,0.4,0.8,0.6,1,0.7C5.9,26,6.1,26.4,6.1,27"/>
			<path class="st0" d="M13.7,30c0,1.2-0.4,2.5-1.4,3.8c-0.9,1.2-1.8,1.9-2.8,1.9c-0.4,0-1.2-0.2-2.4-0.6c-1.2-0.4-1.9-0.8-1.9-1.2
				l0.2-0.2c0.1,0,0.4,0.2,1.1,0.4s1.2,0.4,1.6,0.4c0.9,0,2-0.6,3.2-1.8c1.2-1.2,1.9-2.2,1.9-3.1c0-0.6-0.7-1.5-2.2-2.6
				c0.1-0.4,0.3-1.1,0.4-2c0.8,0.6,1.3,1.2,1.7,1.8C13.4,27.8,13.7,28.8,13.7,30"/>
			<path class="st0" d="M20,30.8h-3.3c-0.2-4.1-0.5-7.9-0.9-11.7c0.3-0.4,0.6-0.8,1.1-1.5l0.5,6.4c0.3,2.8,0.4,4.4,0.5,4.6l0.2,0.2
				c0.2,0.2,0.4,0.3,0.9,0.3h0.9L20,30.8L20,30.8z"/>
			<rect x="19.3" y="29.1" class="st0" width="16.3" height="1.7"/>
			<rect x="35.2" y="29.1" class="st0" width="3.3" height="1.7"/>
			<path class="st0" d="M46.7,34.2l-0.8,1.3L44,34.4l0.8-1.3L46.7,34.2z M51.9,30.8h-4.6c-0.4,0-0.7-0.3-0.8-0.9
				c-0.1-0.2-0.1-0.6-0.2-1.3c-0.2,0.2-0.5,0.4-1.1,0.8c-0.4,0.3-0.8,0.5-1.1,0.7c-0.5,0.5-1.2,0.8-2,0.8h-4.1v-1.7h4.2
				c1.2,0,2.6-0.6,4.1-1.9c-0.6-0.2-1.6-0.4-2.9-0.6l-0.9-0.2c-0.4,0-1.1,0.3-1.9,0.9v-0.1c0-0.2,0.1-0.4,0.2-0.7
				c0.5-1.2,1.3-1.9,2.3-1.9c0.5,0,1.5,0.2,2.7,0.5c1.9,0.5,3.2,0.8,4.1,0.8h0.5c0.5,0,0.7,0,0.6,0c-0.2,0.4-0.4,1-0.7,1.8
				c-0.2,0-0.4,0-0.6,0c-1.2,0-2,0.2-2.8,0.4c0,0.4,0.2,0.6,0.4,0.8l0.2,0.1h4.3V30.8L51.9,30.8z"/>
			<path class="st0" d="M57.3,21.8l-0.8,1.3L54.7,22L54,23.1l-2-1.2l0.8-1.4l1.9,1.2l0.6-1.1L57.3,21.8z M58,30.8h-1
				c-0.3,0-0.4-0.1-0.7-0.3c-0.1-0.1-0.2-0.2-0.3-0.4c-0.1-0.2-0.2-0.4-0.2-0.4c-0.1,0-0.2,0.2-0.4,0.5c-0.2,0.4-0.4,0.5-0.4,0.5
				h-3.5v-1.7H56l0.1-2.2c0.4-0.5,0.9-1.2,1.5-1.9v0.2c0,0.7-0.1,1.8-0.4,3.2c-0.1,0.4-0.1,0.4-0.1,0.5s0.1,0.2,0.4,0.2h0.5L58,30.8
				C58.1,30.8,58,30.8,58,30.8z"/>
			<path class="st0" d="M63.3,20.1l-1,2L62.1,22l0.5,5.7c0,0.4-0.1,1.1-0.3,1.9c-0.2,0.9-0.4,1.3-0.5,1.3h-4.5v-1.7h4.2
				c0.1,0,0.1-0.1,0.1-0.4c0-1.2-0.4-3.7-1-7.6l-0.1-0.1c-0.2-0.2-0.4-0.3-0.4-0.5c0-0.2,0-0.3,0.1-0.4l0.9-1.5
				c0.2-0.3,0.3-0.4,0.4-0.4l0.2,0.2l-0.1,0.3L61.5,19c0,0.1,0.1,0.2,0.2,0.3C62.4,19.6,62.9,19.9,63.3,20.1"/>
			<path class="st0" d="M67.6,28.7c0,0.6-0.3,1.6-0.8,2.9c-0.3-3-0.6-6.6-1.1-10.9c-0.1-0.4,0.4-1.4,1.2-2.9c0.1,0.1,0.2,2,0.4,5.4
				L67.6,28.7z"/>
			<path class="st0" d="M79.7,28c0-0.6-0.6-1.2-1.9-2c-0.4,0.4-0.8,1.1-1.3,1.8c-0.1,0.2-0.1,0.4-0.1,0.5c0,0.5,0.4,0.8,1,0.8
				c0.6,0,1.2-0.2,1.9-0.4C79.6,28.5,79.7,28.2,79.7,28 M80.4,21.1l-0.8,1.3l-1.9-1.2l-0.5,1.1l-2-1.2l0.8-1.4l1.9,1.2l0.6-1.1
				L80.4,21.1z M80.9,27c0,0.4-0.2,1.1-0.6,2c-0.4,0.4-0.6,0.8-1,1c-0.6,0.4-1.3,0.7-2.1,0.9c-0.5,0.1-1,0-1.4-0.2
				c-0.5-0.3-0.8-0.6-0.8-1.1c0-0.8,0.6-2,1.9-3.6l1.6-2c0.2,0.2,0.5,0.5,1,0.9c0.5,0.4,0.8,0.6,1,0.7C80.8,26,80.9,26.4,80.9,27"/>
			<path class="st0" d="M88.7,30c0,1.2-0.4,2.5-1.4,3.8c-0.9,1.2-1.8,1.9-2.8,1.9c-0.4,0-1.2-0.2-2.4-0.6c-1.2-0.4-1.9-0.8-1.9-1.2
				l0.2-0.2c0.1,0,0.4,0.2,1.1,0.4s1.2,0.4,1.6,0.4c0.9,0,2-0.6,3.2-1.8c1.2-1.2,1.9-2.2,1.9-3.1c0-0.6-0.7-1.5-2.2-2.6
				c0.1-0.4,0.3-1.1,0.4-2c0.8,0.6,1.3,1.2,1.7,1.8C88.4,27.8,88.7,28.8,88.7,30"/>
			<path class="st0" d="M93,28.7c0,0.6-0.3,1.6-0.8,2.9c-0.3-3-0.6-6.6-1.1-10.9c-0.1-0.4,0.4-1.4,1.2-2.9c0.1,0.1,0.2,2,0.4,5.4
				L93,28.7z"/>
			<path class="st0" d="M99.6,21.5l-0.8,1.3l-2-1.2l0.8-1.3L99.6,21.5z M101.8,30c0,1.2-0.4,2.5-1.4,3.8c-0.9,1.2-1.8,1.9-2.8,1.9
				c-0.4,0-1.2-0.2-2.4-0.6c-1.2-0.4-1.8-0.8-1.8-1.2l0.2-0.2c0.1,0,0.4,0.2,1.1,0.4s1.2,0.4,1.6,0.4c0.9,0,2-0.6,3.2-1.8
				c1.2-1.2,1.9-2.2,1.9-3.1c0-0.6-0.7-1.5-2.2-2.6c0.1-0.4,0.3-1.1,0.4-2c0.8,0.6,1.3,1.2,1.7,1.8C101.5,27.8,101.8,28.8,101.8,30"
				/>
			<path class="st0" d="M108.6,28.2c0-0.4-0.1-0.7-0.4-1.2c-0.3-0.4-0.5-0.7-0.9-0.7c-0.3,0-0.5,0.2-0.9,0.5s-0.5,0.6-0.4,0.9
				c0,0.3,0.3,0.4,0.6,0.6c0.3,0.1,0.6,0.2,0.9,0.2C108.1,28.7,108.5,28.5,108.6,28.2 M109.9,28.5c0,1.6-0.4,3.1-1,4.5
				c-0.4,0.7-0.8,1.3-1.3,1.9c-0.7,0.7-1.3,1-2,1c-0.5-0.1-1.3-0.2-2.4-0.4c-1.2-0.3-2-0.5-2-0.7c0-0.1,0.1-0.2,0.3-0.2
				c0.3,0,0.6,0.1,1.1,0.2c0.5,0.1,0.9,0.2,1.2,0.2c0.3,0,0.5,0,0.7-0.1c1.1-0.4,2.1-1.1,3.1-2c1.1-1.1,1.6-2,1.6-2.9
				c0-0.4,0-0.8-0.2-1.1c-0.4,0.8-0.7,1.3-1.2,1.5c-0.3,0.2-0.6,0.2-1.2,0.2c-0.4,0-0.8-0.3-1.1-0.8c-0.2-0.4-0.3-0.8-0.3-1.3
				c0-0.5,0.3-1.3,0.9-2.3c0.6-1.1,1.2-1.6,1.7-1.6c0.4,0,0.7,0.4,1.2,1.3C109.6,26.6,109.9,27.5,109.9,28.5"/>
			<polygon class="st0" points="2.8,39.5 5.2,45.6 7.5,39.5 9,39.5 9,47.5 7.7,47.5 7.7,42 5.5,47.5 4.6,47.5 2.7,42 2.7,47.5 
				1.3,47.5 1.3,39.5 			"/>
			<path class="st0" d="M10.1,47.5h1.3v-5.8h-1.3V47.5z M10.1,40.6h1.3v-1.1h-1.3V40.6z"/>
			<path class="st0" d="M12.3,41.8h1.3v0.4c0.3-0.2,0.5-0.4,0.8-0.4s0.6-0.2,0.9-0.2s0.5,0,0.8,0.1s0.4,0.2,0.6,0.4
				c0.2,0.2,0.3,0.4,0.4,0.5s0.1,0.4,0.1,0.7v4.1h-1.3v-4c0-0.4-0.1-0.6-0.2-0.7c-0.2-0.2-0.4-0.2-0.5-0.2c-0.2,0-0.4,0-0.6,0.1
				c-0.2,0.1-0.4,0.2-0.5,0.4c-0.2,0.2-0.3,0.3-0.4,0.4c-0.1,0.2-0.1,0.4-0.1,0.5v3.5h-1.2C12.3,47.4,12.3,41.8,12.3,41.8z"/>
			<path class="st0" d="M18.3,47.5h1.3v-5.8h-1.3V47.5z M18.3,40.6h1.3v-1.1h-1.3V40.6z"/>
			<path class="st0" d="M21.9,45.6c0,0.2,0,0.4,0.1,0.5c0.1,0.2,0.1,0.3,0.3,0.4l0.4,0.2c0.1,0,0.3,0.1,0.4,0.1c0.1,0,0.3,0,0.4,0
				c0.2,0,0.3-0.1,0.4-0.1l0.3-0.3c0.1-0.1,0.1-0.3,0.1-0.4c0-0.2,0-0.3-0.1-0.4l-0.3-0.3c-0.1-0.1-0.3-0.2-0.4-0.2
				c-0.2-0.1-0.3-0.1-0.4-0.2c-0.3-0.1-0.5-0.2-0.7-0.3c-0.3-0.1-0.4-0.2-0.6-0.4c-0.2-0.2-0.4-0.3-0.4-0.4
				c-0.1-0.2-0.2-0.4-0.2-0.7c0-0.3,0.1-0.4,0.2-0.7c0.1-0.2,0.3-0.4,0.4-0.4c0.2-0.1,0.4-0.2,0.7-0.3c0.3-0.1,0.5-0.1,0.8-0.1
				c0.4,0,0.6,0,0.9,0.1c0.3,0.1,0.5,0.2,0.7,0.3c0.2,0.2,0.4,0.4,0.5,0.5c0.1,0.2,0.2,0.4,0.2,0.8h-0.1h-0.2H25h-0.3h-0.9
				c0-0.2-0.1-0.3-0.1-0.4l-0.2-0.3l-0.3-0.1H23c-0.3,0-0.4,0.1-0.6,0.2c-0.2,0.1-0.2,0.3-0.2,0.4l0.1,0.4l0.3,0.3
				c0.1,0.1,0.3,0.2,0.4,0.2c0.2,0.1,0.3,0.1,0.4,0.2c0.3,0.1,0.4,0.2,0.7,0.3c0.3,0.1,0.4,0.2,0.6,0.4c0.2,0.1,0.4,0.3,0.4,0.4
				c0.1,0.2,0.2,0.4,0.2,0.6c0,0.4-0.1,0.6-0.2,0.8c-0.2,0.3-0.4,0.4-0.5,0.5c-0.3,0.2-0.4,0.3-0.8,0.4c-0.3,0.1-0.6,0.1-1,0.1
				s-0.6,0-0.9-0.1s-0.5-0.2-0.7-0.4c-0.2-0.2-0.4-0.4-0.5-0.6c-0.1-0.3-0.2-0.5-0.2-0.9h1.3C21.9,45.9,21.9,45.6,21.9,45.6z"/>
			<path class="st0" d="M28,40.1v1.7h0.9v0.9H28v3.6c0,0.2,0,0.4,0.1,0.4l0.3,0.1h0.2c0.1,0,0.3,0,0.4-0.1v0.9
				c-0.2,0-0.4,0.1-0.5,0.1c-0.2,0-0.4,0-0.4,0c-0.2,0-0.4,0-0.5-0.1c-0.2,0-0.4-0.1-0.4-0.2c-0.1-0.1-0.3-0.2-0.3-0.4
				c-0.1-0.2-0.1-0.4-0.1-0.5v-3.8h-0.9v-0.9h0.9v-1.7H28z"/>
			<path class="st0" d="M29.7,41.8h1.2l0.1,0.5c0.2-0.2,0.4-0.4,0.5-0.4c0.2-0.1,0.4-0.2,0.6-0.2h0.3l0.4,0.1v1.1
				c-0.4-0.2-0.6-0.2-0.6-0.2c-0.2,0-0.4,0-0.4,0.1c-0.2,0.1-0.3,0.2-0.4,0.3s-0.2,0.3-0.2,0.4c-0.1,0.1-0.1,0.3-0.1,0.4v3.5h-1.3
				C29.7,47.4,29.7,41.8,29.7,41.8z"/>
			<path class="st0" d="M35.8,45.8l1.3-3.9h1.3l-2.4,6.9c-0.1,0.3-0.2,0.4-0.3,0.6c-0.1,0.2-0.3,0.3-0.4,0.4
				C35.3,49.9,35.2,50,35,50C34.8,50,34.7,50,34.5,50c-0.1,0-0.3,0-0.4,0s-0.3-0.1-0.4-0.2v-1l0.2,0.1l0.2,0.1l0.2,0.1h0.1l0.2-0.1
				l0.1-0.2l0.1-0.3l0.1-0.3l0.3-0.8l-2.1-5.8h1.4L35.8,45.8z"/>
			<path class="st0" d="M42.7,44.7c0,0.3,0,0.5,0.1,0.8s0.2,0.4,0.3,0.6s0.3,0.4,0.4,0.4c0.2,0.1,0.4,0.2,0.6,0.2
				c0.3,0,0.4-0.1,0.6-0.2s0.4-0.3,0.4-0.4s0.3-0.4,0.3-0.6c0.1-0.3,0.1-0.5,0.1-0.8c0-0.3,0-0.5-0.1-0.8s-0.2-0.4-0.3-0.6
				c-0.1-0.2-0.3-0.4-0.4-0.4s-0.4-0.2-0.6-0.2c-0.2,0-0.4,0.1-0.6,0.2c-0.2,0.1-0.4,0.3-0.4,0.4c-0.1,0.2-0.3,0.4-0.3,0.6
				C42.7,44.1,42.7,44.4,42.7,44.7 M41.3,44.7c0-0.4,0.1-0.8,0.2-1.2c0.1-0.4,0.3-0.7,0.5-1c0.3-0.3,0.5-0.4,0.9-0.6
				c0.4-0.2,0.7-0.3,1.2-0.3c0.4,0,0.8,0.1,1.2,0.3c0.4,0.2,0.6,0.4,0.9,0.6c0.3,0.3,0.4,0.6,0.5,1c0.1,0.4,0.2,0.7,0.2,1.2
				c0,0.4-0.1,0.8-0.2,1.2s-0.3,0.7-0.5,1c-0.3,0.3-0.5,0.4-0.9,0.6c-0.4,0.2-0.7,0.3-1.2,0.3c-0.4,0-0.8-0.1-1.2-0.3
				c-0.4-0.2-0.6-0.4-0.9-0.6c-0.3-0.3-0.4-0.6-0.5-1C41.4,45.4,41.3,45,41.3,44.7"/>
			<path class="st0" d="M48.4,41.8v-1.3c0-0.2,0-0.4,0.1-0.4c0.1-0.2,0.2-0.3,0.3-0.4c0.1-0.1,0.3-0.2,0.4-0.3s0.4-0.1,0.6-0.1
				c0.1,0,0.3,0,0.4,0.1c0.2,0.1,0.4,0.1,0.5,0.3v0.9c-0.2-0.1-0.4-0.2-0.4-0.2l-0.2-0.1L50,40.3c-0.1,0.1-0.1,0.2-0.1,0.4v1.2h1
				v0.9h-1v4.8h-1.3v-4.8h-1v-0.9L48.4,41.8L48.4,41.8z"/>
			<path class="st0" d="M55.2,43.4c0,0.5,0.1,1.1,0.2,1.5c0.2,0.4,0.4,0.8,0.5,1.1c0.3,0.3,0.4,0.4,0.8,0.6c0.3,0.2,0.5,0.2,0.9,0.2
				c0.3,0,0.5-0.1,0.8-0.2c0.3-0.1,0.4-0.3,0.6-0.4c0.2-0.2,0.4-0.4,0.4-0.7c0.1-0.3,0.2-0.5,0.3-0.8h1.3c-0.1,0.4-0.2,0.8-0.4,1.2
				c-0.2,0.4-0.4,0.7-0.7,1c-0.3,0.3-0.6,0.5-1.1,0.6c-0.4,0.2-0.9,0.3-1.3,0.3c-0.5,0-1.1-0.1-1.5-0.3c-0.4-0.2-0.9-0.4-1.2-0.9
				c-0.4-0.4-0.6-0.8-0.7-1.3c-0.2-0.5-0.3-1.2-0.3-1.9c0-0.4,0-0.7,0.1-1.1c0.1-0.4,0.2-0.6,0.4-1c0.2-0.3,0.4-0.6,0.5-0.8
				c0.2-0.3,0.4-0.4,0.7-0.6c0.3-0.2,0.6-0.4,0.9-0.4c0.4-0.1,0.7-0.2,1.1-0.2c0.5,0,1,0.1,1.3,0.2c0.4,0.1,0.7,0.4,1.1,0.5
				c0.3,0.3,0.5,0.5,0.7,0.8c0.2,0.4,0.4,0.7,0.4,1.1h-1.3c-0.2-0.6-0.4-1-0.9-1.3c-0.4-0.3-0.8-0.4-1.3-0.4c-0.4,0-0.7,0.1-1,0.3
				c-0.3,0.2-0.5,0.4-0.7,0.7c-0.2,0.3-0.4,0.6-0.5,1C55.3,42.7,55.2,42.9,55.2,43.4"/>
			<path class="st0" d="M63.3,44.7c0,0.3,0,0.5,0.1,0.8s0.2,0.4,0.3,0.6c0.1,0.2,0.3,0.4,0.4,0.4c0.2,0.1,0.4,0.2,0.6,0.2
				s0.4-0.1,0.6-0.2s0.4-0.3,0.4-0.4c0.1-0.2,0.3-0.4,0.3-0.6c0.1-0.3,0.1-0.5,0.1-0.8c0-0.3,0-0.5-0.1-0.8
				c-0.1-0.3-0.2-0.4-0.3-0.6c-0.1-0.2-0.3-0.4-0.4-0.4s-0.4-0.2-0.6-0.2c-0.2,0-0.4,0.1-0.6,0.2c-0.2,0.1-0.4,0.3-0.4,0.4
				c-0.1,0.2-0.3,0.4-0.3,0.6C63.4,44.1,63.3,44.4,63.3,44.7 M62.1,44.7c0-0.4,0.1-0.8,0.2-1.2c0.1-0.4,0.3-0.7,0.5-1
				c0.3-0.3,0.5-0.4,0.9-0.6c0.4-0.2,0.7-0.3,1.2-0.3c0.4,0,0.8,0.1,1.2,0.3c0.4,0.2,0.6,0.4,0.9,0.6c0.3,0.3,0.4,0.6,0.5,1
				c0.1,0.4,0.2,0.7,0.2,1.2c0,0.4-0.1,0.8-0.2,1.2c-0.1,0.4-0.3,0.7-0.5,1c-0.3,0.3-0.5,0.4-0.9,0.6c-0.4,0.2-0.7,0.3-1.2,0.3
				c-0.4,0-0.8-0.1-1.2-0.3c-0.4-0.2-0.6-0.4-0.9-0.6c-0.3-0.3-0.4-0.6-0.5-1C62.1,45.4,62.1,45,62.1,44.7"/>
			<path class="st0" d="M68.5,41.8h1.3v0.4c0.3-0.2,0.4-0.4,0.7-0.4s0.5-0.1,0.8-0.1s0.5,0.1,0.8,0.2c0.3,0.1,0.4,0.3,0.7,0.6
				c0.1-0.2,0.3-0.3,0.4-0.4c0.2-0.1,0.3-0.2,0.4-0.3c0.2-0.1,0.4-0.1,0.4-0.2c0.2,0,0.4,0,0.4,0c0.3,0,0.5,0,0.8,0.2
				c0.3,0.1,0.4,0.2,0.6,0.4s0.3,0.4,0.4,0.5c0.1,0.2,0.2,0.4,0.2,0.7v4.1h-1.3v-3.8c0-0.2,0-0.4-0.1-0.5c-0.1-0.2-0.1-0.3-0.2-0.4
				l-0.3-0.2l-0.3-0.1c-0.2,0-0.3,0-0.4,0.1s-0.3,0.2-0.4,0.3c-0.1,0.1-0.2,0.3-0.3,0.4c-0.1,0.2-0.1,0.4-0.1,0.5v3.6h-1.3v-3.8
				c0-0.2,0-0.4-0.1-0.5c-0.1-0.2-0.1-0.3-0.2-0.4l-0.3-0.2l-0.3-0.1c-0.2,0-0.4,0.1-0.5,0.2s-0.3,0.2-0.4,0.4
				c-0.1,0.2-0.2,0.3-0.3,0.4c-0.1,0.2-0.1,0.4-0.1,0.5v3.5h-1.3V41.8L68.5,41.8z"/>
			<path class="st0" d="M77.6,41.8H79v0.4c0.3-0.2,0.4-0.4,0.7-0.4c0.3-0.1,0.5-0.1,0.8-0.1c0.3,0,0.5,0.1,0.8,0.2
				c0.3,0.1,0.4,0.3,0.7,0.6c0.1-0.2,0.3-0.3,0.4-0.4c0.2-0.1,0.3-0.2,0.4-0.3c0.2-0.1,0.4-0.1,0.4-0.2c0.2,0,0.4,0,0.4,0
				c0.3,0,0.5,0,0.8,0.2c0.3,0.1,0.4,0.2,0.6,0.4c0.2,0.2,0.3,0.4,0.4,0.5c0.1,0.2,0.2,0.4,0.2,0.7v4.1h-1.3v-3.8
				c0-0.2,0-0.4-0.1-0.5c-0.1-0.2-0.1-0.3-0.2-0.4l-0.3-0.2l-0.3-0.1c-0.2,0-0.3,0-0.4,0.1s-0.3,0.2-0.4,0.3
				c-0.1,0.1-0.2,0.3-0.3,0.4c-0.1,0.2-0.1,0.4-0.1,0.5v3.6h-1.3v-3.8c0-0.2,0-0.4-0.1-0.5c-0.1-0.2-0.1-0.3-0.2-0.4l-0.3-0.2
				l-0.3-0.1c-0.2,0-0.4,0.1-0.5,0.2c-0.2,0.1-0.3,0.2-0.4,0.4c-0.1,0.2-0.2,0.3-0.3,0.4C79,43.6,79,43.8,79,44v3.5h-1.3L77.6,41.8
				L77.6,41.8z"/>
			<path class="st0" d="M90.8,44c0-0.2-0.1-0.4-0.1-0.6c-0.1-0.2-0.2-0.4-0.3-0.4c-0.1-0.2-0.3-0.3-0.4-0.4s-0.4-0.1-0.5-0.1
				c-0.2,0-0.4,0-0.5,0.1c-0.2,0.1-0.3,0.2-0.4,0.4c-0.1,0.2-0.2,0.3-0.3,0.4c-0.1,0.2-0.1,0.4-0.1,0.5L90.8,44L90.8,44L90.8,44z
				 M88.1,44.9c0,0.3,0.1,0.4,0.2,0.7c0.1,0.3,0.2,0.4,0.3,0.6c0.1,0.2,0.3,0.3,0.4,0.4c0.2,0.1,0.4,0.2,0.5,0.2
				c0.6,0,1.2-0.4,1.4-1.2h1.2c-0.1,0.4-0.2,0.6-0.4,0.9c-0.2,0.3-0.4,0.4-0.6,0.6c-0.3,0.2-0.5,0.3-0.8,0.4
				c-0.3,0.1-0.5,0.1-0.9,0.1c-0.4,0-0.8-0.1-1.2-0.3c-0.4-0.2-0.6-0.4-0.9-0.7c-0.3-0.3-0.4-0.6-0.5-1c-0.1-0.4-0.2-0.8-0.2-1.2
				s0.1-0.7,0.2-1.1c0.1-0.4,0.4-0.6,0.5-0.9c0.3-0.3,0.5-0.4,0.9-0.6c0.4-0.2,0.7-0.3,1.2-0.3s0.8,0.1,1.2,0.2
				c0.4,0.2,0.6,0.4,0.9,0.6c0.3,0.3,0.4,0.5,0.5,0.9c0.1,0.4,0.2,0.7,0.2,1.2V45L88.1,44.9L88.1,44.9z"/>
			<path class="st0" d="M93,41.8h1.2l0.1,0.4c0.2-0.2,0.4-0.4,0.5-0.4c0.2-0.1,0.4-0.2,0.6-0.2h0.3l0.4,0.1v1.1
				c-0.4-0.2-0.6-0.2-0.6-0.2c-0.2,0-0.4,0-0.4,0.1c-0.2,0.1-0.3,0.2-0.4,0.3c-0.1,0.1-0.2,0.3-0.2,0.4c-0.1,0.2-0.1,0.4-0.1,0.5
				v3.5H93V41.8L93,41.8z"/>
			<path class="st0" d="M100.6,43.6c-0.1-0.4-0.3-0.7-0.4-0.8c-0.2-0.2-0.4-0.3-0.7-0.3c-0.2,0-0.4,0.1-0.6,0.2
				c-0.2,0.1-0.4,0.3-0.4,0.4c-0.1,0.2-0.2,0.4-0.3,0.6C98,44.1,98,44.3,98,44.5c0,0.3,0,0.5,0.1,0.8c0.1,0.3,0.2,0.5,0.3,0.7
				c0.1,0.2,0.3,0.4,0.4,0.4s0.4,0.2,0.5,0.2c0.2,0,0.3,0,0.4-0.1l0.4-0.3c0.1-0.1,0.2-0.3,0.3-0.4c0.1-0.2,0.1-0.4,0.2-0.5h1.4
				c0,0.4-0.1,0.7-0.3,1s-0.4,0.5-0.5,0.7c-0.2,0.2-0.4,0.4-0.8,0.4c-0.3,0.1-0.6,0.2-1,0.2c-0.4,0-0.9-0.1-1.2-0.3
				c-0.4-0.2-0.6-0.4-0.8-0.7c-0.2-0.3-0.4-0.6-0.4-1c-0.1-0.4-0.2-0.7-0.2-1.1c0-0.4,0.1-0.8,0.2-1.2c0.1-0.4,0.3-0.6,0.5-0.9
				c0.3-0.3,0.5-0.4,0.9-0.6c0.4-0.2,0.7-0.3,1.2-0.3c0.4,0,0.7,0.1,1,0.2c0.3,0.1,0.5,0.3,0.7,0.4c0.2,0.2,0.4,0.4,0.5,0.6
				c0.1,0.3,0.3,0.5,0.3,0.8L100.6,43.6L100.6,43.6L100.6,43.6z"/>
			<path class="st0" d="M106.9,44c0-0.2-0.1-0.4-0.1-0.6c-0.1-0.2-0.2-0.4-0.3-0.4c-0.1-0.2-0.3-0.3-0.4-0.4s-0.4-0.1-0.5-0.1
				c-0.2,0-0.4,0-0.5,0.1c-0.2,0.1-0.3,0.2-0.4,0.4c-0.1,0.2-0.2,0.3-0.3,0.4c-0.1,0.2-0.1,0.4-0.1,0.5L106.9,44L106.9,44L106.9,44z
				 M104.2,44.9c0,0.3,0.1,0.4,0.2,0.7c0.1,0.3,0.2,0.4,0.3,0.6c0.1,0.2,0.3,0.3,0.4,0.4c0.2,0.1,0.4,0.2,0.5,0.2
				c0.6,0,1.2-0.4,1.4-1.2h1.2c-0.1,0.4-0.2,0.6-0.4,0.9c-0.2,0.3-0.4,0.4-0.6,0.6c-0.3,0.2-0.5,0.3-0.8,0.4
				c-0.3,0.1-0.6,0.1-0.9,0.1c-0.4,0-0.8-0.1-1.2-0.3c-0.4-0.2-0.6-0.4-0.9-0.7c-0.3-0.3-0.4-0.6-0.5-1c-0.1-0.4-0.2-0.8-0.2-1.2
				s0.1-0.7,0.2-1.1c0.1-0.4,0.4-0.6,0.5-0.9c0.3-0.3,0.5-0.4,0.9-0.6c0.4-0.2,0.7-0.3,1.2-0.3s0.8,0.1,1.2,0.2
				c0.4,0.2,0.6,0.4,0.9,0.6c0.3,0.3,0.4,0.5,0.5,0.9c0.1,0.4,0.2,0.7,0.2,1.2V45L104.2,44.9L104.2,44.9L104.2,44.9z"/>
			<g>
				<path class="st0" d="M187.5-0.2c-8,1.6-19.1,2.6-30.8,2.6c-11.6,0-22.8-0.9-30.8-2.6c1.6,8,2.6,19.2,2.6,30.8
					c0,11.7-0.9,22.8-2.6,30.8c8-1.6,19.2-2.6,30.8-2.6c11.7,0,22.8,0.9,30.8,2.6c-1.6-8-2.6-19.1-2.6-30.8
					C185,19,185.9,7.8,187.5-0.2z M166.9,14.9C167,15,167,15,167,15.2v0.2h0.1c0,0,0.8,0.1,0.8,1.2v0.1h0.1c0,0,0.7,0.4,0.8,1
					c0,0.2,0,0.3-0.1,0.4c-0.1,0-0.4,0-0.6,0c-0.5,0-0.9-0.1-1-0.3l0,0l0,0c0,0-0.8-0.3-1.6-0.9l-0.1-0.1h-0.1c0,0-0.3,0.2-0.6,0.2
					s-0.7-0.2-1.1-0.4l-0.1-0.1l-0.1,0.1c0,0-0.1,0.1-0.3,0.2h-0.1H163l0,0c-0.3,0-0.6-0.1-1-0.4l-0.1,0l-0.1,0.2
					c0,0-0.2,0.4-1.2,0.4c-0.2,0-0.3,0-0.4,0c-0.2-0.1-1.3-0.5-2.4-0.7l-0.4-0.1l0,0c0.4-0.1,0.7-0.3,1.1-0.4
					c0.5-0.2,1.1-0.3,1.1-0.3l0,0c0.9-0.4,1.1-0.9,1.2-1.2c0.4,0,0.6-0.1,0.8-0.2l0,0c0,0,0.6-0.3,1.2-0.3c0.2,0,0.4,0.1,0.4,0.2
					c0.1,0.1,0.1,0.2,0.1,0.3v0.3l0.2-0.1c0,0,0.8-0.4,1.4-0.4c0.2,0,0.3,0,0.4,0.1c0,0.1,0,0.2,0,0.3l-0.1,0.2h0.2
					c0,0,0.3-0.1,0.5-0.1C166.5,14.6,166.8,14.7,166.9,14.9z M162.9,23.3c0,0,0.4,0.6-0.3,1.2l-0.1,0.1v0.1c0,0.2,0.1,0.8-0.1,1.1
					l-0.3,0.2c-0.4-0.4-0.7-0.9-0.7-1.2l0,0l0,0c0,0-0.4-0.7-0.4-1.6V23h-0.1c0,0-0.7-0.4-0.7-1.3v-0.1h-0.1c0,0-0.5,0-0.7-1.2v-0.2
					l-0.2,0.1c0,0-0.4,0.2-1.1-0.9c-0.1-0.2-0.5-1.4-1-2.3c1,0.7,2.2,2.1,2.2,2.1l0,0c0.4,0.4,0.9,0.5,1.2,0.5
					c0.3,0,0.4-0.1,0.5-0.2c0.1,0.2,0.3,0.4,0.4,0.4l-0.1,0.1l-0.2,0.1l0.2,0.1c0.4,0.3,1.2,0.8,1.1,1.1l-0.2,0.2l-0.2,0.1l0.2,0.2
					c0.2,0.2,0.7,0.8,0.7,1.2L162.9,23.3L162.9,23.3L162.9,23.3z M151.2,26l-0.3-0.2c-0.3-0.4-0.1-1.1-0.1-1.1v-0.1l-0.1-0.1
					c-0.6-0.5-0.3-1.2-0.3-1.2l0.1-0.1l-0.1-0.1l-0.2-0.3c0-0.4,0.5-1,0.7-1.2l0.2-0.2l-0.2-0.1l-0.2-0.2c0-0.3,0.6-0.8,1.1-1.1
					l0.2-0.1l-0.2-0.1l-0.1-0.1c0.1-0.1,0.2-0.3,0.4-0.4c0.1,0.1,0.3,0.2,0.5,0.2c0.4,0,0.8-0.2,1.2-0.5l0,0c0,0,1.2-1.4,2.2-2.1
					c-0.4,0.9-0.9,2.1-1,2.3c-0.6,1.1-1.1,0.9-1.1,0.9l-0.2-0.1v0.2c-0.1,1.1-0.7,1.2-0.7,1.2h-0.1v0.2c0,1.1-0.7,1.3-0.7,1.3h-0.1
					v0.1c0,0.9-0.4,1.6-0.4,1.6l0,0l0,0C151.9,25.1,151.5,25.6,151.2,26z M146.7,22.1c-0.3-1.2,0.4-1.7,0.4-1.8l0.1-0.1v-0.1
					c-0.1-0.2-0.1-0.4,0-0.6c0.3-0.6,1.3-0.9,1.3-0.9h0.2l-0.1-0.2c-0.1-0.2-0.1-0.4,0-0.4c0.3-0.4,1.2-0.5,1.6-0.5h0.2l-0.1-0.2
					v-0.2h0.1c0.3,0,0.6-0.1,1-0.4c0.2,0.2,0.4,0.4,1.3,0.4c0.2,0,0.4,0,0.5,0l0,0c0,0,1.8-0.7,2.8-0.8h0.2l0,0l-0.3,0.2l-0.4,0.3
					c-0.9,0.7-1.9,1.9-2,2c-0.4,0.3-0.8,0.4-1.1,0.4s-0.4-0.2-0.4-0.2l-0.1-0.1L152,19l-0.1,0.2c-0.2,0.3-0.3,0.4-0.4,0.6l-0.1,0.1
					c-0.3,0.3-0.4,0.3-0.5,0.3l-0.2-0.1l-0.1-0.1l-0.1,0.2c-0.5,1.1-1.2,1.2-1.3,1.2h-0.1H149v0.1c-0.5,1.2-1.2,1.8-1.2,1.8l0,0l0,0
					c-0.2,0.4-1,0.9-1.3,1C145.8,23.5,146.7,22.2,146.7,22.1L146.7,22.1L146.7,22.1z M152.7,36.9h3.5l-0.7-3.2l0.5-0.5l-0.7-2.9
					l0.6-0.3l-0.8-3.2l0.7-0.5l-0.6-2.7l0.7-0.4l-0.4-2.4l0.5-0.4l-0.1-2.6l0,0c0-0.1,0.3-0.8,0.8-1.3c0.6,0.5,0.8,1.3,0.8,1.3
					l-0.1,2.6l0.5,0.4l-0.4,2.4l0.7,0.4l-0.6,2.7l0.7,0.5l-0.7,3.2l0.5,0.3l-0.7,2.9l0.5,0.5l-0.5,3.2h3.4c0,0,0.4,0.2,0.3,0.5
					c-0.2,0.4-2,2.1-2,2c-0.2-0.1-0.2-0.8-0.3-0.9c-0.1-0.1-0.8,0.7-1.2,0.9c0,0-0.4-0.4-0.9-0.7c-0.5,0.4-1.1,0.7-1.1,0.7
					c-0.4-0.2-0.9-1-0.9-0.9c-0.1,0.1-0.1,0.8-0.3,0.9c-0.2,0.1-2-1.7-2-2C152.3,37,152.7,36.9,152.7,36.9z M162.9,20.1l-0.1-0.2
					l-0.1,0.1c0,0-0.1,0.1-0.2,0.1c-0.1,0-0.4-0.1-0.5-0.3l-0.1-0.1c-0.1-0.2-0.3-0.4-0.4-0.6l-0.1-0.2l-0.1,0.1l-0.1,0.1
					c0,0-0.1,0.2-0.4,0.2c-0.3,0-0.6-0.2-1.1-0.4c-0.1-0.2-1.2-1.2-2-2c-0.2-0.1-0.3-0.2-0.4-0.3l-0.3-0.2l0,0h0.2
					c1.2,0.2,2.8,0.8,2.8,0.8l0,0c0.2,0,0.4,0,0.5,0c0.8,0,1.2-0.3,1.3-0.4c0.4,0.3,0.7,0.4,1.1,0.4h0.1v0.2l-0.1,0.2h0.2
					c0.4,0,1.3,0.1,1.6,0.5c0.1,0.1,0.1,0.3,0,0.4l-0.1,0.2l0.2,0.1c0,0,1,0.3,1.3,0.9c0.1,0.2,0.1,0.4,0,0.6v0.1l0.1,0.1
					c0,0,0.8,0.5,0.4,1.8v0.1v0.1c0,0,0.9,1.3,0.4,2c-0.4-0.2-1.2-0.5-1.3-1l0,0l0,0c0,0-0.7-0.7-1.2-1.8l-0.1-0.1h-0.1h-0.1
					C164,21.3,163.4,21.2,162.9,20.1z M163.8,10.8L163.8,10.8h0.2c0,0,0.2-0.1,0.4-0.1c0.3,0,0.5,0.2,0.7,0.5v0.1h0.1h0.1
					c0.2,0,0.7,0,0.9,0.3c0.1,0.1,0.1,0.2,0.1,0.4c-0.3,0.2-0.8,0.6-1.2,0.6H165l0,0l0,0c0,0-0.4,0.2-1.1,0.2c-0.2,0-0.3,0-0.4,0
					h-0.1v0.1c0,0-0.4,0.5-1.1,0.5h-0.3H162v0.1c0,0,0,0.2-0.2,0.3l-0.1,0.1l-0.3,0.1h-0.1c-0.1,0-0.3,0-0.4,0h-0.1h-0.1l0,0V14l0,0
					c0,0.1,0,0.5-1,1.1c-0.2,0-1.1,0.3-1.9,0.5c-0.3,0.1-0.4,0.2-0.7,0.3l0,0l0,0l0.3-0.4c0.5-0.5,1.2-1.2,1.2-1.2l0,0
					c0.5-0.7,0.5-1.2,0.5-1.3c0.6-0.4,0.7-0.8,0.7-1c0.3-0.1,0.4-0.3,0.6-0.4l0,0c0.1,0,0.2,0,0.2,0.2l0.1,0.2l0.1-0.2
					c0.3-0.4,0.8-1,1.1-1c0,0,0.1,0,0.2,0.2l0.1,0.2l0.2-0.2c0.2-0.2,0.7-0.5,1.1-0.5C163.7,10.5,163.7,10.6,163.8,10.8z
					 M158.2,11.2l0.2,0.2l0.1-0.3c0.1-0.5,0.4-1.2,0.5-1.2l0.1,0.1l0.2,0.2l0.1-0.2c0.1-0.3,0.4-0.9,0.8-0.9l0.2,0.1l0.1,0.1
					l0.1-0.1c0,0,0.2-0.3,0.4-0.3c0.2,0,0.3,0.1,0.4,0.2l0.1,0.1h0.1c0,0,0.4-0.2,0.6-0.2c0.2,0,0.4,0.1,0.4,0.2
					c-0.2,0.4-0.4,0.9-0.7,0.9l0,0l0,0c0,0-0.4,0.4-1.2,0.7h-0.1v0.1c0,0,0,0.2-0.2,0.4c-0.1,0.2-0.4,0.4-0.6,0.4l0,0h-0.1v0.2V12
					v0.1c0,0.1,0,0.3-0.2,0.4c-0.1,0.1-0.3,0.2-0.4,0.4L159,13l0,0l0,0l0.1,0.1c0,0,0.2,0.4-0.4,1.2c-0.1,0.1-0.5,0.4-1,0.8
					l-0.3,0.3l-0.3,0.3l0.1-0.2c0.4-1.1,0.9-3.1,1.1-4.4L158.2,11.2z M155.6,10.2L155.6,10.2l0.1-0.2c-0.1-1,0-1.8,0.2-2l0.1-0.1
					h0.1l0.2,0.1V8c0.2-0.7,0.4-1.2,0.6-1.4c0.2,0.2,0.4,0.6,0.6,1.4v0.2l0.2-0.1h0.1l0.1,0.1c0.2,0.3,0.3,1.1,0.2,2v0.2h0.1
					c0,0.1,0,0.4-0.1,0.7v0.2l-0.1,0.4c-0.2,0.9-0.5,2.1-0.9,3.5v0.1l-0.1,0.4l0,0v-0.1l-0.1-0.4V15c-0.4-1.2-0.7-2.6-0.9-3.5
					l-0.1-0.4V11C155.6,10.6,155.6,10.3,155.6,10.2z M151.4,9c0.3,0,0.6,0.2,0.6,0.2h0.1l0.1-0.1c0.2-0.1,0.3-0.2,0.4-0.2
					c0.3,0,0.4,0.3,0.4,0.3l0.1,0.1l0.1-0.1l0.2-0.1c0.3,0,0.6,0.6,0.7,0.9l0.1,0.2l0.1-0.2l0.1-0.1c0.2,0,0.4,0.6,0.5,1.2v0.3
					l0.2-0.2l0.2-0.1c0.3,1.2,0.8,3.3,1.1,4.4l0.1,0.2l-0.3-0.3l-0.3-0.3c-0.4-0.4-0.9-0.8-1-0.8c-0.6-0.8-0.4-1.2-0.4-1.2l0.1-0.1
					l0,0l0,0l-0.1-0.1c-0.2-0.1-0.4-0.2-0.4-0.4c-0.2-0.2-0.2-0.4-0.2-0.4v-0.1V12l0,0h-0.1l0,0c-0.4-0.1-0.5-0.3-0.6-0.4
					c-0.2-0.3-0.2-0.4-0.2-0.4V11h-0.1c-0.6-0.3-1.2-0.7-1.2-0.7l0,0l0,0c-0.3,0-0.5-0.5-0.7-0.9C151,9,151.2,9,151.4,9z
					 M147.4,11.7c0.3-0.3,0.8-0.3,0.9-0.3h0.1h0.1v-0.1c0.2-0.4,0.4-0.5,0.7-0.5c0.2,0,0.4,0.1,0.4,0.1l0.1,0.1l0.1-0.1
					c0.1-0.2,0.2-0.3,0.4-0.3c0.4,0,1.1,0.5,1.1,0.5l0.2,0.2l0.1-0.2c0-0.2,0.1-0.2,0.2-0.2c0.3,0,0.8,0.6,1.1,1l0.1,0.2l0.1-0.2
					c0.1-0.2,0.2-0.2,0.3-0.2l0,0c0.2,0.2,0.4,0.4,0.6,0.4c0,0.2,0.1,0.6,0.7,1c-0.1,0.2-0.1,0.7,0.4,1.3l0,0c0,0,0.7,0.5,1.2,1.2
					l0.3,0.4l0,0l0,0c-0.2-0.1-0.4-0.2-0.7-0.3c-0.8-0.3-1.7-0.5-1.9-0.5c-1-0.4-1-1-1-1.1l0,0v-0.1l0,0h-0.1h-0.1
					c-0.2,0-0.3,0-0.4,0h-0.1l-0.3-0.1l-0.1-0.1c-0.2-0.2-0.2-0.3-0.2-0.3v-0.1h-0.1h-0.3c-0.7,0-1.1-0.5-1.1-0.5l-0.1-0.1h-0.1
					c-0.2,0-0.3,0-0.4,0c-0.6,0-1.1-0.2-1.1-0.2l0,0l0,0h-0.1c-0.4,0-0.9-0.4-1.2-0.6C147.2,11.8,147.3,11.8,147.4,11.7z
					 M144.6,17.6c0.1-0.5,0.8-1,0.8-1h0.1v-0.1c0-1.1,0.8-1.2,0.8-1.2h0.1v-0.2c0-0.2,0-0.3,0.1-0.4c0.2-0.2,0.5-0.3,1-0.3
					c0.3,0,0.5,0.1,0.5,0.1h0.2l-0.1-0.2c0-0.1,0-0.3,0-0.3c0.1-0.1,0.2-0.1,0.4-0.1c0.5,0,1.4,0.4,1.4,0.4l0.2,0.1v-0.3
					c0-0.2,0-0.3,0.1-0.3c0.1-0.1,0.3-0.2,0.4-0.2c0.5,0,1.2,0.3,1.2,0.3h0.1c0.2,0.1,0.4,0.2,0.8,0.2c0,0.3,0.3,0.7,1.2,1.2l0,0
					c0,0,0.4,0.1,1.1,0.3c0.4,0.1,0.7,0.2,1.1,0.4l0,0l-0.4,0.1c-1.1,0.3-2.2,0.7-2.4,0.7c-0.2,0-0.4,0-0.4,0c-1,0-1.2-0.4-1.2-0.4
					l-0.1-0.2l-0.1,0.1c-0.4,0.3-0.7,0.4-1,0.4l0,0h-0.1h-0.1c-0.2-0.1-0.3-0.2-0.3-0.2l-0.1-0.1l-0.1,0.1c-0.4,0.3-0.7,0.4-1.1,0.4
					s-0.6-0.2-0.6-0.2H148l-0.1,0.1c-0.8,0.6-1.6,0.9-1.6,0.9l0,0l0,0c-0.2,0.2-0.4,0.3-1,0.3c-0.3,0-0.4,0-0.6,0
					C144.6,18,144.6,17.8,144.6,17.6z M165.3,41.8c-2.4,1.6-4.8,3.5-6.9,5.3c1.2,1.1,2.3,2.1,3.4,3.4l0.1-0.1h0.3l0.1,0.2l0.2-0.3
					c-0.1-0.3,0-0.6,0.3-0.8c0.4-0.3,0.7-0.3,1,0c0.3,0.3,0.2,0.7-0.1,1c-0.2,0.2-0.4,0.3-0.7,0.2c-0.2,0.3-0.1,0.4-0.1,0.4
					c0.3,0.7,1.6,1.2,2.7,1.2c0.8,0,1.3-0.3,2.1-1.1c0.9-0.9,1.7,0,1.7,0c1.2,1.9-1.3,3.5-3.1,3.6c-2.2,0-4.3-1.3-4.8-2
					c-0.2-0.2-0.4-0.3-0.5-0.2c-0.1,0-0.2,0.2-0.2,0.4c0,0.3-0.1,0.4-0.3,0.6c-0.3,0.3-0.7,0.3-1,0s-0.2-0.7,0.1-1
					c0.2-0.2,0.4-0.2,0.5-0.2h0.1l-0.1-0.1v-0.3l0.3-0.3c-0.4-0.4-1.8-1.8-3.7-3.4c-1.8,1.6-3.1,2.9-3.7,3.4l0.3,0.3v0.3l-0.1,0.1
					h0.1c0.2,0,0.4,0.1,0.5,0.2c0.3,0.3,0.4,0.7,0.1,1c-0.3,0.3-0.7,0.3-1,0c-0.2-0.2-0.3-0.4-0.3-0.6s-0.1-0.3-0.2-0.4
					c-0.2-0.1-0.3,0-0.5,0.2c-0.5,0.6-2.5,2-4.7,2c-1.9,0-4.5-1.7-3.1-3.6c0,0,0.8-0.9,1.7,0c0.8,0.8,1.3,1.1,2.1,1.1
					c1,0,2.3-0.6,2.6-1.2c0,0,0.1-0.3-0.1-0.4c-0.2,0.1-0.4,0-0.7-0.2c-0.3-0.3-0.4-0.7-0.1-1c0.3-0.3,0.7-0.3,1,0
					c0.3,0.2,0.4,0.5,0.3,0.8l0.2,0.3v-0.2h0.3l0.1,0.1c1.2-1.2,2.3-2.3,3.4-3.4c-2-1.7-4.5-3.7-6.9-5.3c-7.6-5.1-13.3-4.5-13.3-4.5
					c4.3-1.6,9.7,0,12.1,1.3c1.8,1,5.5,3.3,9.7,6.9c4.2-3.7,8-6,9.7-6.9c2.5-1.4,7.8-2.9,12.1-1.3C178.6,37.1,172.9,36.7,165.3,41.8
					z"/>
			</g>
		</g>
	</g>
</g>
</svg>
